<svg width="19" height="19" viewBox="0 0 19 19" fill="none" xmlns="http://www.w3.org/2000/svg">
<path d="M8.58337 12.25H10.4167V14.0833H8.58337V12.25ZM8.58337 4.91665H10.4167V10.4166H8.58337V4.91665ZM9.49087 0.333313C4.43087 0.333313 0.333374 4.43998 0.333374 9.49998C0.333374 14.56 4.43087 18.6666 9.49087 18.6666C14.56 18.6666 18.6667 14.56 18.6667 9.49998C18.6667 4.43998 14.56 0.333313 9.49087 0.333313ZM9.50004 16.8333C5.44837 16.8333 2.16671 13.5516 2.16671 9.49998C2.16671 5.44831 5.44837 2.16665 9.50004 2.16665C13.5517 2.16665 16.8334 5.44831 16.8334 9.49998C16.8334 13.5516 13.5517 16.8333 9.50004 16.8333Z" fill="#FF4C51"/>
</svg>
