<svg width="21" height="21" viewBox="0 0 21 21" fill="none" xmlns="http://www.w3.org/2000/svg">
<path d="M10.5 2.41892C13.1506 2.41892 13.5121 2.41892 14.5964 2.41892C15.5602 2.41892 16.0422 2.65989 16.4036 2.78037C16.8855 3.02133 17.247 3.14182 17.6084 3.50326C17.9699 3.86471 18.2108 4.22615 18.3313 4.70808C18.4518 5.06953 18.5723 5.55145 18.6928 6.51531C18.6928 7.59965 18.6928 7.84061 18.6928 10.6117C18.6928 13.3828 18.6928 13.6237 18.6928 14.7081C18.6928 15.6719 18.4518 16.1539 18.3313 16.5153C18.0904 16.9972 17.9699 17.3587 17.6084 17.7201C17.247 18.0816 16.8855 18.3225 16.4036 18.443C16.0422 18.5635 15.5602 18.684 14.5964 18.8045C13.5121 18.8045 13.2711 18.8045 10.5 18.8045C7.72892 18.8045 7.48795 18.8045 6.40362 18.8045C5.43976 18.8045 4.95783 18.5635 4.59639 18.443C4.11446 18.2021 3.75301 18.0816 3.39157 17.7201C3.03012 17.3587 2.78916 16.9972 2.66868 16.5153C2.54819 16.1539 2.42771 15.6719 2.30723 14.7081C2.30723 13.6237 2.30723 13.3828 2.30723 10.6117C2.30723 7.84061 2.30723 7.59965 2.30723 6.51531C2.30723 5.55145 2.54819 5.06953 2.66868 4.70808C2.90964 4.22615 3.03012 3.86471 3.39157 3.50326C3.75301 3.14182 4.11446 2.90085 4.59639 2.78037C4.95783 2.65989 5.43976 2.53941 6.40362 2.41892C7.48795 2.41892 7.8494 2.41892 10.5 2.41892ZM10.5 0.611694C7.72892 0.611694 7.48795 0.611694 6.40362 0.611694C5.31928 0.611694 4.59639 0.852659 3.99398 1.09362C3.39157 1.33459 2.78916 1.69603 2.18675 2.29844C1.58434 2.90085 1.34337 3.38278 0.981928 4.10567C0.740965 4.70808 0.620482 5.43097 0.5 6.51531C0.5 7.59965 0.5 7.96109 0.5 10.6117C0.5 13.3828 0.5 13.6237 0.5 14.7081C0.5 15.7924 0.740965 16.5153 0.981928 17.1177C1.22289 17.7201 1.58434 18.3225 2.18675 18.9249C2.78916 19.5274 3.27109 19.7683 3.99398 20.1298C4.59639 20.3707 5.31928 20.4912 6.40362 20.6117C7.48795 20.6117 7.8494 20.6117 10.5 20.6117C13.1506 20.6117 13.5121 20.6117 14.5964 20.6117C15.6807 20.6117 16.4036 20.3707 17.006 20.1298C17.6084 19.8888 18.2108 19.5274 18.8133 18.9249C19.4157 18.3225 19.6566 17.8406 20.0181 17.1177C20.259 16.5153 20.3795 15.7924 20.5 14.7081C20.5 13.6237 20.5 13.2623 20.5 10.6117C20.5 7.96109 20.5 7.59965 20.5 6.51531C20.5 5.43097 20.259 4.70808 20.0181 4.10567C19.7771 3.50326 19.4157 2.90085 18.8133 2.29844C18.2108 1.69603 17.7289 1.45507 17.006 1.09362C16.4036 0.852659 15.6807 0.732176 14.5964 0.611694C13.5121 0.611694 13.2711 0.611694 10.5 0.611694Z" fill="#324BAA"/>
<path d="M10.5 5.43097C7.60843 5.43097 5.31928 7.72013 5.31928 10.6117C5.31928 13.5033 7.60843 15.7924 10.5 15.7924C13.3916 15.7924 15.6807 13.5033 15.6807 10.6117C15.6807 7.72013 13.3916 5.43097 10.5 5.43097ZM10.5 13.9852C8.69277 13.9852 7.12651 12.5394 7.12651 10.6117C7.12651 8.80447 8.57229 7.2382 10.5 7.2382C12.3072 7.2382 13.8735 8.68398 13.8735 10.6117C13.8735 12.4189 12.3072 13.9852 10.5 13.9852Z" fill="#324BAA"/>
<path d="M15.8012 6.51531C16.4666 6.51531 17.006 5.97589 17.006 5.31049C17.006 4.64509 16.4666 4.10567 15.8012 4.10567C15.1358 4.10567 14.5964 4.64509 14.5964 5.31049C14.5964 5.97589 15.1358 6.51531 15.8012 6.51531Z" fill="#324BAA"/>
</svg>
