<svg width="24" height="25" viewBox="0 0 24 25" fill="none" xmlns="http://www.w3.org/2000/svg">
<g clip-path="url(#clip0_33_8655)">
<path d="M23.7068 22.7937L17.7378 16.8247C19.3644 14.8353 20.1642 12.2968 19.9716 9.73426C19.7791 7.17173 18.609 4.78123 16.7034 3.05722C14.7977 1.33321 12.3024 0.40759 9.73342 0.471822C7.16447 0.536053 4.71849 1.58522 2.9014 3.40231C1.08431 5.2194 0.0351379 7.66539 -0.029094 10.2343C-0.0933258 12.8033 0.832293 15.2987 2.5563 17.2043C4.28031 19.1099 6.67081 20.28 9.23334 20.4725C11.7959 20.6651 14.3344 19.8653 16.3238 18.2387L22.2928 24.2077C22.4814 24.3899 22.734 24.4907 22.9962 24.4884C23.2584 24.4861 23.5092 24.3809 23.6946 24.1955C23.88 24.0101 23.9852 23.7593 23.9875 23.4971C23.9897 23.2349 23.8889 22.9823 23.7068 22.7937ZM9.99978 18.5007C8.41753 18.5007 6.87081 18.0315 5.55522 17.1525C4.23963 16.2734 3.21425 15.024 2.60875 13.5622C2.00324 12.1004 1.84482 10.4918 2.1535 8.93998C2.46218 7.38813 3.22411 5.96266 4.34293 4.84384C5.46175 3.72502 6.88721 2.9631 8.43906 2.65442C9.99091 2.34573 11.5994 2.50416 13.0613 3.10966C14.5231 3.71516 15.7725 4.74054 16.6515 6.05614C17.5306 7.37173 17.9998 8.91845 17.9998 10.5007C17.9974 12.6217 17.1538 14.6551 15.654 16.1549C14.1542 17.6547 12.1208 18.4983 9.99978 18.5007Z" fill="#324BAA"/>
</g>
<defs>
<clipPath id="clip0_33_8655">
<rect width="24" height="24" fill="white" transform="translate(0 0.5)"/>
</clipPath>
</defs>
</svg>
