<svg width="21" height="17" viewBox="0 0 21 17" fill="none" xmlns="http://www.w3.org/2000/svg">
<path d="M20.1 2.51169C19.4 2.81169 18.6 3.01169 17.8 3.11169C18.6 2.61169 19.3 1.8117 19.6 0.911697C18.8 1.4117 18 1.7117 17 1.9117C16.3 1.1117 15.2 0.611694 14.1 0.611694C11.9 0.611694 10.1 2.41169 10.1 4.61169C10.1 4.91169 10.1 5.21169 10.2 5.51169C6.9 5.31169 3.89999 3.71169 1.89999 1.31169C1.59999 1.91169 1.39999 2.61169 1.39999 3.31169C1.39999 4.71169 2.1 5.91169 3.2 6.61169C2.5 6.61169 1.89999 6.41169 1.39999 6.11169C1.39999 8.01169 2.79999 9.71169 4.59999 10.0117C4.29999 10.1117 3.9 10.1117 3.5 10.1117C3.2 10.1117 3 10.1117 2.7 10.0117C3.2 11.6117 4.7 12.8117 6.5 12.8117C5.1 13.9117 3.4 14.5117 1.5 14.5117C1.2 14.5117 0.9 14.5117 0.5 14.4117C2.3 15.5117 4.4 16.2117 6.7 16.2117C14.1 16.2117 18.1 10.1117 18.1 4.81169V4.31169C18.9 4.01169 19.6 3.31169 20.1 2.51169Z" fill="#324BAA"/>
</svg>
