<svg width="17" height="17" viewBox="0 0 17 17" fill="none" xmlns="http://www.w3.org/2000/svg">
<g clip-path="url(#clip0_20_362)">
<path d="M8.5 8.49996C9.34057 8.49996 10.1623 8.2507 10.8612 7.7837C11.5601 7.31671 12.1048 6.65295 12.4265 5.87636C12.7482 5.09977 12.8323 4.24524 12.6683 3.42082C12.5044 2.5964 12.0996 1.83913 11.5052 1.24475C10.9108 0.650379 10.1536 0.245606 9.32913 0.0816187C8.50471 -0.0823685 7.65018 0.00179569 6.8736 0.323468C6.09701 0.645141 5.43325 1.18987 4.96625 1.88878C4.49926 2.58769 4.25 3.40939 4.25 4.24996C4.25113 5.37678 4.69925 6.45713 5.49604 7.25392C6.29282 8.0507 7.37318 8.49883 8.5 8.49996ZM8.5 1.41662C9.06038 1.41662 9.60818 1.58279 10.0741 1.89413C10.5401 2.20546 10.9032 2.64796 11.1177 3.16569C11.3321 3.68341 11.3882 4.2531 11.2789 4.80271C11.1696 5.35232 10.8997 5.85718 10.5035 6.25343C10.1072 6.64967 9.60237 6.91952 9.05276 7.02885C8.50314 7.13817 7.93345 7.08206 7.41573 6.86761C6.89801 6.65317 6.4555 6.29001 6.14417 5.82407C5.83284 5.35813 5.66667 4.81034 5.66667 4.24996C5.66667 3.49851 5.96518 2.77784 6.49653 2.24649C7.02788 1.71513 7.74855 1.41662 8.5 1.41662V1.41662Z" fill="#E8F3FF"/>
<path d="M8.5 9.9171C6.80982 9.91897 5.1894 10.5912 3.99426 11.7864C2.79913 12.9815 2.12687 14.6019 2.125 16.2921C2.125 16.48 2.19963 16.6601 2.33247 16.793C2.4653 16.9258 2.64547 17.0004 2.83333 17.0004C3.02119 17.0004 3.20136 16.9258 3.3342 16.793C3.46704 16.6601 3.54167 16.48 3.54167 16.2921C3.54167 14.9771 4.06406 13.7159 4.99393 12.786C5.9238 11.8562 7.18497 11.3338 8.5 11.3338C9.81503 11.3338 11.0762 11.8562 12.0061 12.786C12.9359 13.7159 13.4583 14.9771 13.4583 16.2921C13.4583 16.48 13.533 16.6601 13.6658 16.793C13.7986 16.9258 13.9788 17.0004 14.1667 17.0004C14.3545 17.0004 14.5347 16.9258 14.6675 16.793C14.8004 16.6601 14.875 16.48 14.875 16.2921C14.8731 14.6019 14.2009 12.9815 13.0057 11.7864C11.8106 10.5912 10.1902 9.91897 8.5 9.9171V9.9171Z" fill="#E8F3FF"/>
</g>
<defs>
<clipPath id="clip0_20_362">
<rect width="17" height="17" fill="white"/>
</clipPath>
</defs>
</svg>
